<?xml version="1.0" standalone="no"?>
<!DOCTYPE svg PUBLIC "-//W3C//DTD SVG 20010904//EN"
 "http://www.w3.org/TR/2001/REC-SVG-20010904/DTD/svg10.dtd">
<svg version="1.0" xmlns="http://www.w3.org/2000/svg"
 width="700.000000pt" height="700.000000pt" viewBox="0 0 700.000000 700.000000"
 preserveAspectRatio="xMidYMid meet">
<metadata>
Created by potrace 1.11, written by Peter Selinger 2001-2013
</metadata>
<g transform="translate(0.000000,700.000000) scale(0.100000,-0.100000)"
fill="#000000" stroke="none">
<path d="M2260 6475 c-209 -47 -351 -196 -439 -461 -49 -147 -62 -226 -68
-422 l-6 -183 83 3 82 3 28 77 c118 324 311 442 585 357 74 -22 186 -99 237
-161 72 -88 168 -293 247 -527 40 -118 161 -586 161 -622 0 -9 -347 -895 -771
-1970 -424 -1075 -774 -1960 -776 -1967 -4 -10 71 -12 368 -10 l373 3 557
1453 c306 799 560 1456 563 1459 3 4 9 3 13 0 6 -6 123 -459 473 -1832 177
-693 268 -893 474 -1040 123 -87 231 -125 357 -125 214 0 370 90 452 261 94
197 118 317 124 641 l5 258 -85 0 -86 0 -6 -37 c-21 -133 -82 -281 -148 -358
-19 -22 -59 -54 -88 -70 -50 -28 -61 -30 -159 -30 -95 0 -111 3 -162 28 -165
81 -281 259 -401 617 -43 128 -939 3240 -1034 3590 -86 317 -175 560 -267 724
-75 134 -242 281 -373 328 -75 27 -222 33 -313 13z"/>
</g>
</svg>
